<svg id="Layer_1" data-name="Layer 1" xmlns="http://www.w3.org/2000/svg" viewBox="0 0 725.4 150"><path id="PMT_-_LOGO_-_2020" data-name="PMT - LOGO - 2020" d="M0,0V150H725.4V0ZM0,97.16V53.41L10.42,75.29ZM295.74,94h-37.5v6h-17.5V82.51l5-10.5-5-10.5V50h55Zm48,6-12-5-12,5h-14V50h52.5V85h-9.5l12,15Zm41,0h-16.5V50h16.5Zm67,0h-16.5l-12-5-12,5h-16.5V50h11l17,9.5,18-9.5h11Zm51,0-13.5-5-13.5,5h-16.5l30-49,30,49Zm43,0h-16.5V65h-20.5V51h57V65h-20Zm53.5,0-13.5-5-13.5,5h-16.5l30-49,30,49Z" fill="#141414" fill-rule="evenodd"/></svg>