<svg width="248" height="142" viewBox="0 0 248 142" fill="none" xmlns="http://www.w3.org/2000/svg">
<rect width="248" height="142" fill="white"/>
<path d="M183 88.4463L188.422 43H207.462L212.787 88.4463H202.168L201.37 81.1129H194.609L193.907 88.4463H183ZM194.609 81.1129H201.37L198.053 50.7465H197.543L194.609 81.1129Z" fill="black"/>
<path d="M46.5223 88.2726C42.4614 88.2726 39.1871 87.2484 36.6995 85.1998C34.2332 83.1514 33 80.2852 33 76.6013V55.6339C33 51.227 34.0737 47.8529 36.2211 45.5118C38.3898 43.1706 41.9086 42 46.7775 42C49.4351 42 51.7952 42.3959 53.8575 43.1878C55.9412 43.9797 57.5783 45.1675 58.769 46.7512C59.9596 48.3177 60.5549 50.2974 60.5549 52.6902L49.3926 60.54V53.8264C49.3926 52.4664 49.18 51.5541 48.7548 51.0893C48.3295 50.6073 47.6704 50.3663 46.7775 50.3663C45.7356 50.3663 45.034 50.6761 44.6726 51.2958C44.3111 51.8984 44.1304 52.7074 44.1304 53.7231V76.472C44.1304 77.7289 44.3536 78.6152 44.8002 79.1317C45.2679 79.6482 45.927 79.9065 46.7775 79.9065C47.7342 79.9065 48.404 79.588 48.7867 78.951C49.1906 78.3141 49.3926 77.4877 49.3926 76.472V68.2866L60.6825 76.8851C60.6825 80.8789 59.4387 83.7796 56.9511 85.5873C54.4635 87.3774 50.9872 88.2726 46.5223 88.2726ZM77.8404 88.2726C73.3544 88.2726 69.9206 87.1796 67.5393 84.9932C65.1793 82.7898 63.9993 79.6138 63.9993 75.4649V53.878C63.9993 49.9875 65.1687 47.0352 67.5074 45.0212C69.8676 43.007 73.3119 42 77.8404 42C82.3693 42 85.8031 43.007 88.1418 45.0212C90.5018 47.0352 91.6818 49.9875 91.6818 53.878V75.4649C91.6818 79.6138 90.4913 82.7898 88.1098 84.9932C85.7498 87.1796 82.3269 88.2726 77.8404 88.2726ZM77.9362 79.9065C79.637 79.9065 80.4875 78.5723 80.4875 75.9041V53.7231C80.4875 51.4852 79.6584 50.3663 78.0001 50.3663C76.1288 50.3663 75.1933 51.511 75.1933 53.8006V75.9555C75.1933 77.3672 75.406 78.3828 75.8313 79.0028C76.2565 79.605 76.9583 79.9065 77.9362 79.9065ZM96.2104 87.8595V42.4131H111.646C115.686 42.4131 118.726 43.3255 120.767 45.1503C122.809 46.9578 123.829 49.6088 123.829 53.1034V74.3805C123.829 78.6843 122.894 82.0065 121.023 84.3478C119.173 86.689 115.92 87.8595 111.264 87.8595H96.2104ZM107.501 79.8289H109.446C111.508 79.8289 112.539 79.0198 112.539 77.4016V53.9555C112.539 52.4406 112.284 51.468 111.774 51.0376C111.285 50.59 110.275 50.3663 108.744 50.3663H107.501V79.8289ZM126.891 87.8595L132.312 42.4131H151.352L156.678 87.8595H146.058L145.261 80.5261H138.5L137.798 87.8595H126.891ZM138.5 80.5261H145.261L141.944 50.1597H141.434L138.5 80.5261ZM164.109 87.8595V51.1409H157.444V42.4131H182.001V51.1409H175.335V87.8595H164.109Z" fill="black"/>
</svg>
